#!OML:ASF F:\VICON\USERDATA\INSTALL\rory3\rory3.ASF
:FULLY-SPECIFIED
:DEGREES
2430
root -2.22933 17.8862 5.49506 18.4935 -25.3223 14.49
lowerback 16.0891 1.2533 0.767804
upperback 6.68176 1.8787 7.47381
thorax -2.12123 0.800556 7.19714
lowerneck -10.3876 -13.2364 -10.9375
upperneck 20.8055 -19.8603 14.977
head 11.117 -8.51817 4.25651
rclavicle 1.27222e-014 2.8625e-014
rhumerus -0.356963 10.4653 -89.1791
rradius 39.6512
rwrist -38.3828
rhand -28.9312 -29.69
rfingers 7.12502
rthumb -2.28531 -59.6575
lclavicle 1.27222e-014 2.8625e-014
lhumerus -26.7984 -48.2532 102.425
lradius 63.8402
lwrist 54.9895
lhand -13.5966 54.6929
lfingers 7.12502
lthumb 12.5181 -1355.7
rfemur -48.2742 -15.6405 19.0059
rtibia 38.0829
rfoot -26.4324 -20.0741
rtoes 19.9693
lfemur -21.9863 -1.32514 -23.3486
ltibia 19.8335
lfoot -0.368448 9.6709
ltoes -31.9805
2431
root -2.24299 17.8911 5.51097 18.9674 -25.1915 13.4793
lowerback 16.0881 1.31372 1.67058
upperback 6.70291 2.0868 7.69572
thorax -2.09955 0.909178 6.8776
lowerneck -10.1886 -13.3057 -11.0236
upperneck 20.6115 -19.9459 15.0753
head 11.042 -8.57224 4.2981
rclavicle -2.8625e-014 2.8625e-014
rhumerus -1.33355 10.8634 -89.7586
rradius 39.9339
rwrist -39.0789
rhand -29.0413 -29.0275
rfingers 7.12502
rthumb -2.39156 -58.9939
lclavicle -2.8625e-014 2.8625e-014
lhumerus -27.6747 -47.8469 102.164
lradius 64.2498
lwrist 55.4421
lhand -9.5412 56.5428
lfingers 7.12502
lthumb 16.4254 -1354.13
rfemur -48.1964 -15.1464 19.9271
rtibia 38.1165
rfoot -26.3861 -20.3185
rtoes 19.2128
lfemur -22.0965 -1.26755 -22.3466
ltibia 19.9923
lfoot -0.466025 10.197
ltoes -31.8626
2432
root -2.25594 17.8795 5.51014 18.2957 -25.2286 14.6388
lowerback 16.199 1.41586 0.529717
upperback 6.79796 2.05299 7.4786
thorax -2.08452 0.881135 7.30931
lowerneck -10.2454 -13.4466 -11.1325
upperneck 20.6407 -20.1281 15.0865
head 11.1059 -8.65443 4.27939
rclavicle -4.13472e-014 -6.36111e-014
rhumerus -2.05331 10.9913 -90.233
rradius 40.0632
rwrist -39.0969
rhand -29.2041 -29.2587
rfingers 7.12502
rthumb -2.54878 -59.2232
lclavicle -4.13472e-014 -6.36111e-014
lhumerus -28.5139 -47.7533 101.993
lradius 64.3811
lwrist 55.3299
lhand -9.92441 55.7884
lfingers 7.12502
lthumb 16.0564 -1354.86
rfemur -48.0776 -15.2283 18.644
rtibia 38.2479
rfoot -26.0543 -20.4268
rtoes 18.4958
lfemur -21.9185 -1.4257 -23.5139
ltibia 20.0917
lfoot -0.578668 10.3806
ltoes -31.777
2433
root -2.26858 17.8714 5.51179 18.1969 -25.1573 14.9421
lowerback 16.1802 1.4999 0.173072
upperback 6.81599 2.11007 7.43466
thorax -2.07291 0.905809 7.45875
lowerneck -10.3171 -13.5758 -11.1437
upperneck 20.7459 -20.3042 15.0222
head 11.179 -8.72956 4.22044
rclavicle 0 9.54166e-015
rhumerus -2.61931 10.997 -90.6454
rradius 39.9887
rwrist -38.7982
rhand -28.8083 -29.0901
rfingers 7.12502
rthumb -2.16661 -59.0588
lclavicle 0 9.54166e-015
lhumerus -29.1629 -47.4397 101.635
lradius 64.7694
lwrist 55.5838
lhand -9.619 56.4083
lfingers 7.12502
lthumb 16.3505 -1354.26
rfemur -48.1399 -15.0952 18.2601
rtibia 38.3436
rfoot -25.6719 -20.2782
rtoes 17.9828
lfemur -21.9473 -1.52654 -23.7998
ltibia 20.1695
lfoot -0.59257 10.5191
ltoes -31.9196
2434
root -2.28166 17.8649 5.51367 18.3695 -25.0632 14.7846
lowerback 16.1533 1.5736 0.259241
upperback 6.784 2.22138 7.46819
thorax -2.10557 0.963118 7.42428
lowerneck -10.1573 -13.6284 -11.1727
upperneck 20.6569 -20.3691 15.0311
head 11.1294 -8.77186 4.22482
rclavicle -8.90555e-014 -1.90833e-014
rhumerus -3.19091 11.3136 -90.9974
rradius 40.1689
rwrist -39.5917
rhand -29.7194 -29.3467
rfingers 7.12502
rthumb -3.04646 -59.3047
lclavicle -8.90555e-014 -1.90833e-014
lhumerus -29.7645 -47.287 101.281
lradius 65.0939
lwrist 55.8171
lhand -9.23718 56.6698
lfingers 7.12502
lthumb 16.7181 -1354.03
rfemur -48.2773 -14.6976 18.2828
rtibia 38.5081
rfoot -25.392 -19.9361
rtoes 17.5049
lfemur -21.9847 -1.59856 -23.5982
ltibia 20.0877
lfoot -0.585053 10.6791
ltoes -31.7307
2435
root -2.29496 17.8584 5.51331 18.4647 -24.9887 14.5554
lowerback 16.2552 1.64607 0.419
upperback 6.80799 2.34187 7.51729
thorax -2.14537 1.0238 7.36192
lowerneck -9.91155 -13.6717 -11.3119
upperneck 20.4086 -20.4156 15.1818
head 11.0329 -8.81299 4.30284
rclavicle -4.45278e-014 -7.95139e-014
rhumerus -3.61313 11.5218 -91.2134
rradius 40.3126
rwrist -39.9684
rhand -30.1252 -29.2396
rfingers 7.12502
rthumb -3.43839 -59.1916
lclavicle -4.45278e-014 -7.95139e-014
lhumerus -30.1282 -47.269 100.891
lradius 65.2426
lwrist 56.1195
lhand -9.22239 56.6264
lfingers 7.12502
lthumb 16.7324 -1354.07
rfemur -48.2299 -14.1736 18.305
rtibia 38.5444
rfoot -25.1789 -19.6439
rtoes 17.1009
lfemur -22.0139 -1.62207 -23.3152
ltibia 20.209
lfoot -0.736162 10.8029
ltoes -31.8415
2436
root -2.31113 17.8544 5.51404 18.5547 -24.9578 14.2735
lowerback 16.3624 1.74193 0.564757
upperback 6.85168 2.49011 7.59277
thorax -2.17141 1.09679 7.33149
lowerneck -9.75187 -13.7446 -11.5169
upperneck 20.2907 -20.5186 15.3623
head 11.0227 -8.87029 4.38549
rclavicle -4.45278e-014 7.95139e-014
rhumerus -3.93486 11.4285 -91.2979
rradius 40.5012
rwrist -39.6915
rhand -29.4747 -29.4402
rfingers 7.12502
rthumb -2.81013 -59.4015
lclavicle -4.45278e-014 7.95139e-014
lhumerus -30.4036 -47.2878 100.553
lradius 65.3767
lwrist 56.4698
lhand -9.34182 56.8916
lfingers 7.12502
lthumb 16.6174 -1353.8
rfemur -48.1182 -13.5721 18.327
rtibia 38.5675
rfoot -25.0104 -19.4257
rtoes 17.056
lfemur -22.0163 -1.66034 -22.9586
ltibia 20.3469
lfoot -0.942658 10.9605
ltoes -31.9052
2437
root -2.3335 17.8515 5.51456 18.6648 -24.8169 14.0433
lowerback 16.3457 1.7159 0.4896
upperback 6.84723 2.45186 7.80176
thorax -2.17297 1.0742 7.61438
lowerneck -9.5013 -13.7218 -12.0744
upperneck 20.3844 -20.4452 15.439
head 11.072 -8.87982 4.52495
rclavicle -2.8625e-014 3.18055e-014
rhumerus -4.23211 11.7651 -91.2121
rradius 40.646
rwrist -39.5942
rhand -28.9648 -29.5565
rfingers 7.12502
rthumb -2.31775 -59.5237
lclavicle -2.8625e-014 3.18055e-014
lhumerus -30.6933 -46.8023 100.379
lradius 65.5487
lwrist 56.5442
lhand -9.48244 57.4115
lfingers 7.12502
lthumb 16.482 -1353.27
rfemur -48.0593 -13.1855 18.3891
rtibia 38.6576
rfoot -24.8859 -19.4278
rtoes 17.0744
lfemur -21.9903 -1.84589 -22.5942
ltibia 20.3622
lfoot -1.08763 11.0827
ltoes -31.8462
2438
root -2.35888 17.8446 5.50733 18.7545 -24.4652 13.9472
lowerback 16.2965 1.53261 0.17385
upperback 6.78083 2.18308 8.11622
thorax -2.20261 0.93557 8.20181
lowerneck -9.07058 -13.5686 -12.9081
upperneck 20.4832 -20.1577 15.5067
head 11.0831 -8.82606 4.75594
rclavicle -9.54166e-015 4.77083e-014
rhumerus -4.48486 12.5192 -90.9842
rradius 40.7713
rwrist -39.7172
rhand -28.8506 -29.5035
rfingers 7.12502
rthumb -2.20741 -59.4718
lclavicle -9.54166e-015 4.77083e-014
lhumerus -30.9466 -45.8706 100.319
lradius 65.6679
lwrist 56.4217
lhand -9.71754 57.5967
lfingers 7.12502
lthumb 16.2556 -1353.06
rfemur -48.0634 -13.0394 18.4195
rtibia 38.8162
rfoot -25.0817 -19.7553
rtoes 16.9477
lfemur -21.9628 -2.11941 -22.299
ltibia 20.2353
lfoot -1.18771 11.0748
ltoes -31.741
2439
root -2.37955 17.8351 5.50075 18.797 -24.1297 13.9877
lowerback 16.2889 1.46358 -0.0107532
upperback 6.77471 2.07259 8.23143
thorax -2.19814 0.877853 8.46121
lowerneck -8.90096 -13.5372 -13.1371
upperneck 20.4149 -20.09 15.5592
head 11.0467 -8.81961 4.83152
rclavicle -2.54444e-014 2.22639e-014
rhumerus -4.31592 12.519 -90.7542
rradius 40.715
rwrist -39.5585
rhand -28.6702 -29.5538
rfingers 7.12502
rthumb -2.03319 -59.5239
lclavicle -2.54444e-014 2.22639e-014
lhumerus -30.8273 -45.7229 99.9929
lradius 65.768
lwrist 56.6143
lhand -9.88454 57.8702
lfingers 7.12502
lthumb 16.0948 -1352.78
rfemur -48.123 -12.9952 18.3475
rtibia 39.0353
rfoot -25.472 -20.028
rtoes 17.0054
lfemur -21.9023 -2.36761 -22.1616
ltibia 20.0093
lfoot -1.19878 11.0196
ltoes -31.8589
2440
root -2.39935 17.8289 5.50108 18.8621 -23.8599 14.0484
lowerback 16.2198 1.5115 0.0167154
upperback 6.82048 2.13312 8.20274
thorax -2.11998 0.906881 8.40134
lowerneck -8.94624 -13.6301 -13.127
upperneck 20.3173 -20.2449 15.7348
head 11.0681 -8.87251 4.85831
rclavicle -1.90833e-014 -3.18055e-014
rhumerus -3.9199 12.0647 -90.4581
rradius 40.8096
rwrist -39.7392
rhand -29.0942 -29.7154
rfingers 7.12502
rthumb -2.44269 -59.6812
lclavicle -1.90833e-014 -3.18055e-014
lhumerus -30.4954 -46.2025 99.5751
lradius 65.8652
lwrist 56.8415
lhand -10.1259 57.9205
lfingers 7.12502
lthumb 15.8624 -1352.71
rfemur -48.2689 -13.0461 18.3262
rtibia 39.3005
rfoot -25.6214 -20.1629
rtoes 17.1731
lfemur -21.8109 -2.47396 -22.099
ltibia 19.7086
lfoot -1.1879 10.8837
ltoes -32.0852
